dataset
version=1
nRows=28
nColumns=39
inDegrees=no
endheader
time	sternoclavicular_r2	sternoclavicular_r3	unrotscap_r3	unrotscap_r2	acromioclavicular_r2	acromioclavicular_r3	acromioclavicular_r1	unrothum_r1	unrothum_r3	unrothum_r2	elv_angle	shoulder_elv	shoulder1_r2	shoulder_rot	elbow_flexion	pro_sup	deviation	flexion	cmc_abduction	cmc_flexion	mp_flexion	ip_flexion	mcp2_flexion	mcp2_abduction	pm2_flexion	md2_flexion	mcp3_flexion	mcp3_abduction	pm3_flexion	md3_flexion	mcp4_flexion	mcp4_abduction	pm4_flexion	md4_flexion	mcp5_flexion	mcp5_abduction	pm5_flexion	md5_flexion
1.150000	-0.009587	-0.296082	0.128533	0.064909	0.057465	0.040223	-0.151143	-0.120409	-0.054393	0.136035	0.072242	0.027437	0.146525	0.146525	1.305564	1.251353	0.000000	0.000000	0.000000	0.000000	0.000000	0.000000	0.000000	0.000000	0.000000	0.000000	0.000000	0.000000	0.000000	0.000000	0.000000	0.000000	0.000000	0.000000	0.000000	0.000000	0.000000	0.000000
1.155000	-0.009562	-0.296322	0.128914	0.064712	0.057298	0.040074	-0.151718	-0.121115	-0.054574	0.135909	0.071935	0.027437	0.146525	0.146525	1.310992	1.251452	0.000000	0.000000	0.000000	0.000000	0.000000	0.000000	0.000000	0.000000	0.000000	0.000000	0.000000	0.000000	0.000000	0.000000	0.000000	0.000000	0.000000	0.000000	0.000000	0.000000	0.000000	0.000000
1.160000	-0.009536	-0.296563	0.129299	0.064512	0.057127	0.039926	-0.152296	-0.121822	-0.054758	0.135780	0.071622	0.027437	0.146525	0.146525	1.316593	1.251543	0.000000	0.000000	0.000000	0.000000	0.000000	0.000000	0.000000	0.000000	0.000000	0.000000	0.000000	0.000000	0.000000	0.000000	0.000000	0.000000	0.000000	0.000000	0.000000	0.000000	0.000000	0.000000
1.165000	-0.009512	-0.296807	0.129688	0.064309	0.056952	0.039779	-0.152877	-0.122529	-0.054946	0.135646	0.071305	0.027437	0.146525	0.146525	1.322366	1.251625	0.000000	0.000000	0.000000	0.000000	0.000000	0.000000	0.000000	0.000000	0.000000	0.000000	0.000000	0.000000	0.000000	0.000000	0.000000	0.000000	0.000000	0.000000	0.000000	0.000000	0.000000	0.000000
1.170000	-0.009487	-0.297053	0.130079	0.064103	0.056775	0.039635	-0.153460	-0.123235	-0.055138	0.135510	0.070984	0.027437	0.146525	0.146525	1.328308	1.251700	0.000000	0.000000	0.000000	0.000000	0.000000	0.000000	0.000000	0.000000	0.000000	0.000000	0.000000	0.000000	0.000000	0.000000	0.000000	0.000000	0.000000	0.000000	0.000000	0.000000	0.000000	0.000000
1.175000	-0.009464	-0.297300	0.130473	0.063895	0.056594	0.039492	-0.154044	-0.123937	-0.055334	0.135370	0.070659	0.027437	0.146525	0.146525	1.334414	1.251767	0.000000	0.000000	0.000000	0.000000	0.000000	0.000000	0.000000	0.000000	0.000000	0.000000	0.000000	0.000000	0.000000	0.000000	0.000000	0.000000	0.000000	0.000000	0.000000	0.000000	0.000000	0.000000
1.180000	-0.009441	-0.297548	0.130868	0.063685	0.056412	0.039353	-0.154629	-0.124635	-0.055533	0.135227	0.070332	0.027437	0.146525	0.146525	1.340682	1.251828	0.000000	0.000000	0.000000	0.000000	0.000000	0.000000	0.000000	0.000000	0.000000	0.000000	0.000000	0.000000	0.000000	0.000000	0.000000	0.000000	0.000000	0.000000	0.000000	0.000000	0.000000	0.000000
1.185000	-0.009419	-0.297798	0.131265	0.063473	0.056227	0.039216	-0.155212	-0.125328	-0.055736	0.135082	0.070002	0.027437	0.146525	0.146525	1.347108	1.251881	0.000000	0.000000	0.000000	0.000000	0.000000	0.000000	0.000000	0.000000	0.000000	0.000000	0.000000	0.000000	0.000000	0.000000	0.000000	0.000000	0.000000	0.000000	0.000000	0.000000	0.000000	0.000000
1.190000	-0.009397	-0.298049	0.131662	0.063261	0.056040	0.039082	-0.155795	-0.126014	-0.055943	0.134935	0.069671	0.027437	0.146525	0.146525	1.353689	1.251928	0.000000	0.000000	0.000000	0.000000	0.000000	0.000000	0.000000	0.000000	0.000000	0.000000	0.000000	0.000000	0.000000	0.000000	0.000000	0.000000	0.000000	0.000000	0.000000	0.000000	0.000000	0.000000
1.195000	-0.009377	-0.298300	0.132060	0.063047	0.055852	0.038952	-0.156375	-0.126692	-0.056152	0.134785	0.069338	0.027437	0.146525	0.146525	1.360420	1.251969	0.000000	0.000000	0.000000	0.000000	0.000000	0.000000	0.000000	0.000000	0.000000	0.000000	0.000000	0.000000	0.000000	0.000000	0.000000	0.000000	0.000000	0.000000	0.000000	0.000000	0.000000	0.000000
1.200000	-0.009358	-0.298552	0.132457	0.062834	0.055663	0.038825	-0.156952	-0.127360	-0.056365	0.134634	0.069005	0.027437	0.146525	0.146525	1.367298	1.252005	0.000000	0.000000	0.000000	0.000000	0.000000	0.000000	0.000000	0.000000	0.000000	0.000000	0.000000	0.000000	0.000000	0.000000	0.000000	0.000000	0.000000	0.000000	0.000000	0.000000	0.000000	0.000000
1.205000	-0.009340	-0.298805	0.132854	0.062620	0.055473	0.038703	-0.157525	-0.128018	-0.056581	0.134481	0.068671	0.027437	0.146525	0.146525	1.374319	1.252035	0.000000	0.000000	0.000000	0.000000	0.000000	0.000000	0.000000	0.000000	0.000000	0.000000	0.000000	0.000000	0.000000	0.000000	0.000000	0.000000	0.000000	0.000000	0.000000	0.000000	0.000000	0.000000
1.210000	-0.009323	-0.299058	0.133249	0.062407	0.055283	0.038585	-0.158093	-0.128665	-0.056800	0.134326	0.068337	0.027437	0.146525	0.146525	1.381479	1.252060	0.000000	0.000000	0.000000	0.000000	0.000000	0.000000	0.000000	0.000000	0.000000	0.000000	0.000000	0.000000	0.000000	0.000000	0.000000	0.000000	0.000000	0.000000	0.000000	0.000000	0.000000	0.000000
1.215000	-0.009308	-0.299311	0.133643	0.062194	0.055092	0.038471	-0.158656	-0.129299	-0.057021	0.134170	0.068004	0.027437	0.146525	0.146525	1.388775	1.252080	0.000000	0.000000	0.000000	0.000000	0.000000	0.000000	0.000000	0.000000	0.000000	0.000000	0.000000	0.000000	0.000000	0.000000	0.000000	0.000000	0.000000	0.000000	0.000000	0.000000	0.000000	0.000000
1.220000	-0.009294	-0.299563	0.134035	0.061982	0.054901	0.038363	-0.159213	-0.129919	-0.057245	0.134013	0.067671	0.027437	0.146525	0.146525	1.396201	1.252096	0.000000	0.000000	0.000000	0.000000	0.000000	0.000000	0.000000	0.000000	0.000000	0.000000	0.000000	0.000000	0.000000	0.000000	0.000000	0.000000	0.000000	0.000000	0.000000	0.000000	0.000000	0.000000
1.225000	-0.009281	-0.299815	0.134424	0.061771	0.054710	0.038259	-0.159763	-0.130524	-0.057472	0.133855	0.067340	0.027437	0.146525	0.146525	1.403755	1.252109	0.000000	0.000000	0.000000	0.000000	0.000000	0.000000	0.000000	0.000000	0.000000	0.000000	0.000000	0.000000	0.000000	0.000000	0.000000	0.000000	0.000000	0.000000	0.000000	0.000000	0.000000	0.000000
1.230000	-0.009270	-0.300067	0.134810	0.061561	0.054519	0.038161	-0.160305	-0.131113	-0.057701	0.133696	0.067010	0.027437	0.146525	0.146525	1.411431	1.252117	0.000000	0.000000	0.000000	0.000000	0.000000	0.000000	0.000000	0.000000	0.000000	0.000000	0.000000	0.000000	0.000000	0.000000	0.000000	0.000000	0.000000	0.000000	0.000000	0.000000	0.000000	0.000000
1.235000	-0.009260	-0.300318	0.135193	0.061353	0.054328	0.038069	-0.160839	-0.131685	-0.057932	0.133535	0.066682	0.027437	0.146525	0.146525	1.419225	1.252122	0.000000	0.000000	0.000000	0.000000	0.000000	0.000000	0.000000	0.000000	0.000000	0.000000	0.000000	0.000000	0.000000	0.000000	0.000000	0.000000	0.000000	0.000000	0.000000	0.000000	0.000000	0.000000
1.240000	-0.009252	-0.300568	0.135572	0.061146	0.054138	0.037983	-0.161363	-0.132239	-0.058165	0.133375	0.066356	0.027437	0.146525	0.146525	1.427134	1.252125	0.000000	0.000000	0.000000	0.000000	0.000000	0.000000	0.000000	0.000000	0.000000	0.000000	0.000000	0.000000	0.000000	0.000000	0.000000	0.000000	0.000000	0.000000	0.000000	0.000000	0.000000	0.000000
1.245000	-0.009245	-0.300817	0.135947	0.060942	0.053948	0.037903	-0.161878	-0.132775	-0.058400	0.133213	0.066033	0.027437	0.146525	0.146525	1.435153	1.252124	0.000000	0.000000	0.000000	0.000000	0.000000	0.000000	0.000000	0.000000	0.000000	0.000000	0.000000	0.000000	0.000000	0.000000	0.000000	0.000000	0.000000	0.000000	0.000000	0.000000	0.000000	0.000000
1.250000	-0.009240	-0.301065	0.136317	0.060739	0.053760	0.037829	-0.162382	-0.133291	-0.058637	0.133050	0.065712	0.027437	0.146525	0.146525	1.443277	1.252122	0.000000	0.000000	0.000000	0.000000	0.000000	0.000000	0.000000	0.000000	0.000000	0.000000	0.000000	0.000000	0.000000	0.000000	0.000000	0.000000	0.000000	0.000000	0.000000	0.000000	0.000000	0.000000
1.255000	-0.009236	-0.301311	0.136683	0.060539	0.053572	0.037762	-0.162875	-0.133786	-0.058876	0.132888	0.065395	0.027437	0.146525	0.146525	1.451503	1.252117	0.000000	0.000000	0.000000	0.000000	0.000000	0.000000	0.000000	0.000000	0.000000	0.000000	0.000000	0.000000	0.000000	0.000000	0.000000	0.000000	0.000000	0.000000	0.000000	0.000000	0.000000	0.000000
1.260000	-0.009235	-0.301556	0.137042	0.060340	0.053385	0.037702	-0.163357	-0.134261	-0.059116	0.132724	0.065080	0.027437	0.146525	0.146525	1.459825	1.252111	0.000000	0.000000	0.000000	0.000000	0.000000	0.000000	0.000000	0.000000	0.000000	0.000000	0.000000	0.000000	0.000000	0.000000	0.000000	0.000000	0.000000	0.000000	0.000000	0.000000	0.000000	0.000000
1.265000	-0.009234	-0.301799	0.137396	0.060145	0.053199	0.037649	-0.163825	-0.134713	-0.059357	0.132560	0.064769	0.027437	0.146525	0.146525	1.468240	1.252103	0.000000	0.000000	0.000000	0.000000	0.000000	0.000000	0.000000	0.000000	0.000000	0.000000	0.000000	0.000000	0.000000	0.000000	0.000000	0.000000	0.000000	0.000000	0.000000	0.000000	0.000000	0.000000
1.270000	-0.009236	-0.302039	0.137744	0.059951	0.053013	0.037603	-0.164281	-0.135143	-0.059599	0.132395	0.064461	0.027437	0.146525	0.146525	1.476743	1.252095	0.000000	0.000000	0.000000	0.000000	0.000000	0.000000	0.000000	0.000000	0.000000	0.000000	0.000000	0.000000	0.000000	0.000000	0.000000	0.000000	0.000000	0.000000	0.000000	0.000000	0.000000	0.000000
1.275000	-0.009239	-0.302278	0.138086	0.059761	0.052829	0.037564	-0.164723	-0.135550	-0.059843	0.132230	0.064158	0.027437	0.146525	0.146525	1.485329	1.252085	0.000000	0.000000	0.000000	0.000000	0.000000	0.000000	0.000000	0.000000	0.000000	0.000000	0.000000	0.000000	0.000000	0.000000	0.000000	0.000000	0.000000	0.000000	0.000000	0.000000	0.000000	0.000000
1.280000	-0.009244	-0.302514	0.138420	0.059572	0.052646	0.037533	-0.165151	-0.135932	-0.060087	0.132064	0.063858	0.027437	0.146525	0.146525	1.493995	1.252075	0.000000	0.000000	0.000000	0.000000	0.000000	0.000000	0.000000	0.000000	0.000000	0.000000	0.000000	0.000000	0.000000	0.000000	0.000000	0.000000	0.000000	0.000000	0.000000	0.000000	0.000000	0.000000
1.285000	-0.009250	-0.302748	0.138748	0.059387	0.052465	0.037510	-0.165565	-0.136291	-0.060332	0.131898	0.063562	0.027437	0.146525	0.146525	1.502735	1.252065	0.000000	0.000000	0.000000	0.000000	0.000000	0.000000	0.000000	0.000000	0.000000	0.000000	0.000000	0.000000	0.000000	0.000000	0.000000	0.000000	0.000000	0.000000	0.000000	0.000000	0.000000	0.000000
